<svg
    id="svg"
    version="1.1"
    xmlns="http://www.w3.org/2000/svg"
    width="50pt"
    height="50pt"
    viewBox="0, 0, 400,491"
  >
    <g id="svgg">
      <path
        id="path0"
        d="M174.411 0.225 C 163.714 0.905,152.296 2.398,141.453 4.535 C 136.386 5.533,136.661 5.290,138.092 7.499 C 138.739 8.497,139.507 9.698,139.798 10.167 C 140.089 10.636,140.813 11.788,141.406 12.726 C 141.999 13.664,142.782 14.908,143.146 15.490 C 143.510 16.072,144.265 17.269,144.825 18.151 C 145.384 19.033,146.265 20.445,146.782 21.290 C 147.299 22.134,148.139 23.470,148.648 24.258 C 149.157 25.046,150.064 26.474,150.663 27.431 C 151.262 28.388,152.045 29.632,152.403 30.194 C 152.762 30.757,153.545 32.001,154.143 32.958 C 154.742 33.915,155.525 35.159,155.884 35.722 C 156.242 36.285,157.025 37.528,157.624 38.485 C 158.222 39.442,159.006 40.686,159.365 41.249 C 159.724 41.812,160.652 43.286,161.428 44.524 C 162.204 45.763,163.025 47.066,163.252 47.421 C 163.848 48.353,165.705 51.298,166.524 52.610 C 166.911 53.229,167.694 54.473,168.264 55.374 C 168.834 56.274,169.599 57.488,169.963 58.071 C 172.546 62.207,173.272 63.249,173.404 63.007 C 173.802 62.272,194.684 0.347,194.571 0.234 C 194.370 0.033,177.554 0.025,174.411 0.225 M201.904 0.563 C 201.966 0.873,204.656 10.614,207.882 22.211 C 211.109 33.808,213.914 43.895,214.116 44.626 C 214.602 46.387,215.441 49.410,216.075 51.689 C 216.357 52.702,216.818 54.360,217.100 55.374 C 217.381 56.387,217.885 58.183,218.219 59.365 C 218.552 60.548,219.075 62.459,219.380 63.613 C 219.686 64.767,219.987 65.708,220.050 65.704 C 220.112 65.701,220.947 64.577,221.904 63.208 C 224.327 59.741,224.943 58.868,227.738 54.947 C 229.089 53.051,230.333 51.297,230.502 51.048 C 230.670 50.799,231.914 49.049,233.265 47.159 C 234.616 45.268,235.860 43.518,236.029 43.269 C 236.198 43.020,237.441 41.270,238.792 39.380 C 240.143 37.489,241.387 35.739,241.556 35.490 C 241.725 35.241,242.968 33.491,244.319 31.601 C 245.670 29.710,246.914 27.960,247.083 27.711 C 247.252 27.462,248.495 25.712,249.846 23.822 C 251.198 21.932,252.441 20.181,252.610 19.932 C 252.779 19.684,254.023 17.933,255.374 16.043 C 258.346 11.883,258.621 11.451,258.407 11.260 C 258.193 11.071,251.341 8.818,248.516 8.009 C 236.245 4.494,221.237 1.775,206.564 0.409 C 204.151 0.184,202.089 0.000,201.984 0.000 C 201.878 0.000,201.842 0.253,201.904 0.563 M130.604 7.603 C 115.980 11.610,99.541 18.022,87.922 24.251 C 87.021 24.734,85.409 25.592,84.340 26.157 C 83.270 26.722,81.704 27.566,80.860 28.033 C 80.015 28.499,79.117 28.984,78.864 29.110 C 78.208 29.436,78.048 29.264,82.432 32.958 C 84.636 34.816,86.543 36.433,86.669 36.551 C 86.795 36.669,89.478 38.959,92.631 41.639 C 95.783 44.320,98.593 46.713,98.874 46.958 C 99.156 47.203,101.965 49.598,105.118 52.281 C 108.270 54.963,111.080 57.358,111.361 57.603 C 111.643 57.848,114.452 60.243,117.605 62.925 C 120.757 65.608,123.567 68.002,123.849 68.247 C 127.198 71.154,130.258 73.695,130.412 73.695 C 130.519 73.695,130.604 72.764,130.604 71.593 C 130.604 69.047,131.757 17.358,131.944 11.515 C 132.092 6.874,132.193 7.167,130.604 7.603 M262.219 12.948 C 262.148 13.245,261.030 80.750,261.095 80.815 C 261.143 80.863,262.409 79.928,263.907 78.737 C 265.406 77.545,268.521 75.088,270.829 73.277 C 273.137 71.466,275.275 69.782,275.580 69.536 C 275.884 69.290,276.806 68.561,277.627 67.915 C 278.448 67.270,281.138 65.151,283.605 63.207 C 286.071 61.263,288.550 59.317,289.114 58.883 C 290.713 57.650,297.720 52.134,297.986 51.899 C 298.117 51.784,298.900 51.161,299.726 50.515 C 303.290 47.730,309.666 42.721,310.170 42.310 C 310.472 42.064,311.374 41.356,312.174 40.737 L 313.630 39.611 313.059 39.140 C 312.353 38.559,303.889 32.939,302.114 31.873 C 295.997 28.200,291.649 25.839,285.095 22.633 C 275.134 17.758,262.361 12.351,262.219 12.948 M72.253 33.289 C 60.095 40.487,46.315 51.430,32.802 64.617 C 28.870 68.454,28.934 68.351,30.143 68.877 C 30.622 69.085,31.612 69.526,32.344 69.858 C 33.076 70.191,34.918 71.016,36.438 71.694 C 37.958 72.371,39.708 73.154,40.328 73.434 C 41.519 73.972,46.349 76.127,47.902 76.813 C 48.408 77.038,49.330 77.451,49.949 77.733 C 50.568 78.015,51.904 78.612,52.917 79.059 C 54.832 79.905,55.824 80.349,57.728 81.211 C 58.856 81.722,63.574 83.828,65.302 84.592 C 65.809 84.816,66.730 85.230,67.349 85.511 C 68.312 85.948,69.423 86.444,73.183 88.117 C 73.521 88.267,74.350 88.640,75.026 88.945 C 75.701 89.250,77.497 90.054,79.017 90.731 C 80.537 91.409,82.288 92.192,82.907 92.472 C 83.526 92.751,85.368 93.574,87.001 94.300 C 88.634 95.027,90.338 95.791,90.788 95.999 C 91.933 96.527,92.007 97.096,89.960 89.662 C 89.087 86.493,85.636 73.794,85.231 72.262 C 85.067 71.643,84.192 68.419,83.286 65.097 C 82.381 61.776,81.505 58.552,81.342 57.932 C 81.178 57.313,80.303 54.089,79.397 50.768 C 78.492 47.446,77.543 43.946,77.288 42.989 C 75.620 36.711,74.430 32.425,74.319 32.294 C 74.248 32.211,73.318 32.658,72.253 33.289 M318.636 43.831 C 317.976 45.642,297.032 107.932,297.032 108.084 C 297.032 108.353,296.725 108.445,300.102 107.156 C 301.735 106.532,304.284 105.571,305.768 105.020 C 307.251 104.468,309.047 103.789,309.759 103.509 C 310.472 103.230,314.647 101.645,319.038 99.987 C 323.429 98.328,328.818 96.291,331.013 95.460 C 333.209 94.629,336.219 93.497,337.702 92.944 C 339.186 92.392,340.982 91.711,341.694 91.432 C 342.406 91.152,346.535 89.587,350.870 87.953 C 355.205 86.320,358.912 84.920,359.110 84.844 C 359.307 84.768,359.468 84.635,359.468 84.549 C 359.468 84.323,354.713 78.106,354.141 77.584 C 354.079 77.528,353.848 77.246,353.627 76.957 C 348.139 69.790,333.106 55.121,322.600 46.682 C 320.866 45.289,319.288 44.013,319.093 43.848 C 318.796 43.595,318.723 43.592,318.636 43.831 M197.171 50.794 C 196.837 51.511,196.219 52.835,195.799 53.736 C 195.379 54.637,194.737 56.018,194.373 56.807 C 193.745 58.165,193.421 58.861,191.607 62.743 C 191.186 63.644,190.563 64.980,190.222 65.711 C 189.882 66.443,189.259 67.779,188.839 68.680 C 188.419 69.580,187.777 70.962,187.413 71.750 C 186.785 73.108,186.461 73.805,184.647 77.687 C 184.226 78.588,183.603 79.923,183.262 80.655 C 182.922 81.387,182.299 82.723,181.879 83.623 C 181.459 84.524,180.804 85.934,180.424 86.757 L 179.733 88.254 183.265 88.088 C 188.120 87.860,197.236 87.925,200.819 88.214 C 204.175 88.484,210.768 89.216,211.310 89.378 C 211.524 89.442,211.668 89.377,211.669 89.215 C 211.669 88.841,198.154 49.888,197.947 49.668 C 197.855 49.569,197.506 50.076,197.171 50.794 M147.717 56.039 C 147.419 57.497,141.874 96.702,141.954 96.782 C 142.005 96.832,143.225 96.449,144.667 95.930 C 152.798 93.001,163.047 90.417,170.420 89.436 C 171.433 89.301,172.292 89.167,172.330 89.137 C 172.367 89.108,171.832 88.315,171.141 87.377 C 168.318 83.541,165.972 80.318,165.647 79.827 C 165.457 79.541,164.473 78.177,163.460 76.796 C 162.446 75.416,161.479 74.080,161.310 73.829 C 161.141 73.578,160.174 72.238,159.161 70.853 C 158.147 69.468,157.180 68.132,157.011 67.885 C 156.842 67.638,155.875 66.298,154.862 64.907 C 153.849 63.517,152.753 62.001,152.428 61.538 C 152.103 61.075,151.412 60.123,150.893 59.423 C 150.374 58.723,149.534 57.552,149.028 56.822 C 147.985 55.318,147.877 55.254,147.717 56.039 M244.499 61.333 C 242.937 63.100,241.561 64.646,241.442 64.770 C 241.323 64.894,239.583 66.837,237.576 69.089 C 235.569 71.341,233.635 73.506,233.279 73.900 C 232.922 74.294,230.987 76.459,228.980 78.710 C 226.972 80.962,225.038 83.127,224.681 83.521 C 224.325 83.915,222.756 85.664,221.195 87.407 L 218.358 90.577 219.158 90.752 C 229.686 93.062,239.124 96.168,248.260 100.330 C 248.760 100.558,249.200 100.715,249.237 100.678 C 249.337 100.578,247.543 58.325,247.434 58.216 C 247.383 58.164,246.062 59.567,244.499 61.333 M25.053 72.927 C 23.997 74.016,22.216 76.008,20.054 78.518 C 19.639 79.000,17.382 81.731,14.991 84.647 C 10.670 89.915,-0.000 105.396,0.000 106.397 C 0.000 106.545,38.502 122.520,56.476 129.829 C 59.732 131.154,59.819 131.161,59.161 130.050 C 58.908 129.623,58.327 128.582,57.869 127.738 C 57.412 126.894,56.641 125.527,56.155 124.702 C 55.669 123.876,55.271 123.166,55.271 123.124 C 55.271 123.082,55.008 122.601,54.686 122.056 C 54.002 120.895,53.253 119.559,52.249 117.707 C 51.852 116.975,51.459 116.285,51.376 116.172 C 51.292 116.059,50.828 115.230,50.344 114.330 C 49.860 113.429,49.067 112.016,48.581 111.191 C 48.095 110.365,47.697 109.655,47.697 109.613 C 47.697 109.571,47.409 109.049,47.057 108.453 C 46.705 107.857,46.043 106.679,45.586 105.834 C 45.130 104.990,44.358 103.623,43.872 102.798 C 43.386 101.972,42.989 101.262,42.989 101.220 C 42.989 101.178,42.701 100.656,42.348 100.060 C 41.996 99.464,41.335 98.286,40.878 97.441 C 40.421 96.597,39.650 95.230,39.164 94.405 C 38.678 93.579,38.280 92.869,38.280 92.827 C 38.280 92.785,38.017 92.304,37.695 91.759 C 37.042 90.651,36.333 89.388,35.253 87.410 C 34.853 86.679,34.312 85.736,34.049 85.316 C 33.787 84.896,33.572 84.509,33.572 84.455 C 33.572 84.402,33.309 83.911,32.987 83.366 C 32.303 82.205,31.554 80.869,30.550 79.017 C 30.153 78.286,29.761 77.595,29.678 77.482 C 29.596 77.369,29.181 76.633,28.757 75.844 C 27.805 74.079,26.406 71.648,26.341 71.648 C 26.315 71.648,25.735 72.224,25.053 72.927 M103.266 74.565 C 103.322 74.818,103.550 76.361,103.773 77.994 C 104.868 86.009,105.495 90.556,106.057 94.575 C 106.706 99.211,107.061 101.799,108.081 109.314 C 108.424 111.847,108.758 114.174,108.822 114.484 L 108.938 115.048 111.020 113.589 C 118.453 108.380,126.489 103.684,133.110 100.681 C 136.066 99.340,136.196 99.797,131.912 96.468 C 131.225 95.934,127.263 92.825,123.108 89.560 C 114.051 82.441,114.476 82.775,112.692 81.385 C 111.904 80.771,109.509 78.883,107.369 77.190 C 103.257 73.936,103.107 73.840,103.266 74.565 M288.229 80.178 C 284.725 82.474,283.782 83.079,279.017 86.086 C 275.889 88.060,273.345 89.686,271.341 90.991 C 270.778 91.358,269.672 92.067,268.884 92.568 C 266.408 94.141,261.440 97.307,260.225 98.089 C 259.583 98.501,258.598 99.123,258.035 99.471 C 252.999 102.582,252.940 102.632,253.860 103.045 C 254.869 103.497,258.774 105.660,260.160 106.535 C 260.619 106.825,261.044 107.062,261.105 107.062 C 261.863 107.062,273.436 115.213,277.873 118.872 C 279.007 119.808,279.993 120.573,280.065 120.573 C 280.191 120.573,280.524 119.268,282.606 110.645 C 283.122 108.506,283.908 105.258,284.351 103.429 C 284.795 101.599,285.532 98.559,285.988 96.673 C 286.444 94.788,287.129 91.955,287.511 90.379 C 288.307 87.093,290.033 79.909,290.156 79.376 C 290.273 78.865,290.166 78.910,288.229 80.178 M362.636 90.353 C 362.526 90.501,361.745 91.522,360.901 92.622 C 360.056 93.721,358.859 95.284,358.240 96.095 C 357.620 96.906,356.423 98.472,355.578 99.575 C 353.391 102.432,352.004 104.249,350.322 106.461 C 349.513 107.524,342.680 116.452,335.136 126.301 C 327.591 136.151,321.457 144.248,321.503 144.294 C 321.632 144.423,323.590 144.361,346.673 143.501 C 358.495 143.060,372.544 142.550,377.892 142.366 C 383.240 142.183,387.772 141.972,387.964 141.897 C 388.471 141.699,386.469 135.742,383.516 128.659 C 382.258 125.643,382.036 125.135,380.229 121.150 C 378.512 117.364,374.603 109.691,372.427 105.834 C 372.204 105.440,371.790 104.703,371.506 104.197 C 370.279 102.008,370.030 101.573,369.338 100.409 C 368.937 99.734,368.269 98.628,367.855 97.953 C 367.440 97.277,366.884 96.356,366.620 95.906 C 366.048 94.933,363.161 90.443,362.969 90.231 C 362.896 90.149,362.746 90.204,362.636 90.353 M184.749 96.432 C 170.311 97.170,155.188 100.529,142.170 105.889 C 135.490 108.639,128.212 112.342,123.030 115.627 C 113.546 121.639,106.655 127.107,99.386 134.389 C 96.269 137.512,90.948 143.446,90.478 144.326 C 90.329 144.604,90.593 144.818,91.975 145.540 C 92.899 146.022,94.506 146.866,95.548 147.415 C 96.589 147.964,98.316 148.874,99.386 149.437 C 100.455 150.000,102.183 150.909,103.224 151.458 C 104.266 152.006,106.131 152.988,107.369 153.639 C 111.107 155.605,112.242 156.207,112.415 156.313 C 112.506 156.370,111.792 157.309,110.830 158.402 C 104.083 166.060,98.741 174.993,94.510 185.696 C 92.618 190.480,91.629 193.088,88.733 200.921 C 82.192 218.617,73.520 245.910,68.374 264.995 C 68.010 266.346,67.588 267.866,67.436 268.373 C 66.684 270.882,62.274 288.512,61.101 293.701 C 60.980 294.233,61.119 294.198,63.153 293.183 C 63.828 292.846,65.164 292.203,66.121 291.754 C 68.031 290.859,70.787 289.548,74.719 287.667 C 76.126 286.993,77.881 286.160,78.619 285.815 L 79.960 285.189 80.235 283.792 C 81.364 278.056,86.289 260.828,89.529 251.279 C 94.037 237.993,96.467 234.274,102.664 231.171 C 106.746 229.126,110.387 228.298,119.140 227.421 C 121.561 227.179,131.799 226.136,141.891 225.103 L 160.240 223.226 159.740 224.356 C 153.733 237.949,132.838 248.190,104.654 251.355 C 100.682 251.801,101.215 251.336,100.601 254.887 C 100.321 256.506,99.764 259.719,99.364 262.027 C 98.963 264.335,98.327 268.019,97.949 270.215 C 97.572 272.410,96.927 276.141,96.516 278.506 C 96.106 280.870,95.461 284.601,95.083 286.796 C 94.706 288.992,94.061 292.723,93.650 295.087 C 93.240 297.451,92.595 301.182,92.217 303.378 C 91.840 305.573,91.195 309.304,90.784 311.668 C 90.374 314.033,89.729 317.764,89.351 319.959 C 88.974 322.155,88.329 325.885,87.918 328.250 C 87.508 330.614,86.863 334.345,86.486 336.540 C 86.108 338.736,85.463 342.467,85.052 344.831 C 84.642 347.195,83.990 350.962,83.604 353.202 C 83.218 355.441,82.493 359.633,81.992 362.516 C 81.490 365.399,80.844 369.140,80.554 370.829 C 80.265 372.518,79.620 376.249,79.122 379.120 C 78.623 381.991,77.930 385.998,77.582 388.025 C 75.904 397.794,74.487 405.999,74.208 407.557 C 74.039 408.505,73.923 409.299,73.951 409.321 C 73.979 409.343,79.764 406.495,86.807 402.992 C 93.849 399.488,101.265 395.821,103.286 394.842 C 112.754 390.256,116.334 388.536,120.967 386.348 C 129.092 382.510,130.368 381.914,137.769 378.503 C 144.507 375.396,144.591 375.358,148.209 373.739 C 149.841 373.008,151.684 372.180,152.303 371.898 C 153.759 371.237,154.910 370.727,156.807 369.904 C 157.651 369.537,158.802 369.030,159.365 368.776 C 177.468 360.613,199.699 352.286,210.989 349.440 C 212.692 349.011,216.326 343.514,218.551 338.001 C 223.290 326.262,223.575 308.264,219.304 290.532 C 218.622 287.702,218.657 287.700,217.817 290.635 C 216.291 295.967,213.300 304.276,211.547 308.053 C 211.163 308.879,210.850 309.605,210.850 309.666 C 210.850 309.770,207.750 315.966,207.135 317.093 C 203.325 324.070,198.164 330.486,193.449 334.106 C 190.770 336.163,189.583 336.799,183.930 339.206 C 182.016 340.022,179.990 340.898,179.427 341.155 C 178.864 341.412,176.542 342.412,174.267 343.378 C 171.992 344.345,169.643 345.358,169.047 345.630 C 168.451 345.902,166.102 346.916,163.827 347.882 C 161.552 348.848,159.203 349.862,158.607 350.134 C 158.011 350.406,155.662 351.419,153.387 352.386 C 151.112 353.352,148.763 354.365,148.167 354.637 C 147.571 354.910,145.222 355.923,142.947 356.889 C 140.672 357.856,138.323 358.869,137.727 359.141 C 137.130 359.413,134.781 360.426,132.506 361.393 C 130.232 362.359,127.882 363.372,127.286 363.645 C 126.690 363.917,124.341 364.930,122.066 365.896 C 119.791 366.863,117.442 367.874,116.846 368.144 C 116.250 368.414,113.874 369.439,111.566 370.422 C 109.258 371.406,107.001 372.380,106.551 372.587 C 104.653 373.459,99.998 375.398,99.940 375.341 C 99.886 375.287,100.445 371.914,102.244 361.464 C 102.530 359.803,102.997 357.085,103.283 355.425 C 103.568 353.764,104.175 350.241,104.631 347.595 C 105.086 344.949,105.958 339.882,106.567 336.336 C 109.462 319.489,110.016 316.266,110.752 311.975 C 111.187 309.442,111.821 305.757,112.160 303.787 C 112.499 301.817,113.015 298.823,113.305 297.134 C 113.595 295.445,114.206 291.899,114.661 289.253 C 116.196 280.344,117.703 271.571,118.360 267.721 L 119.013 263.897 120.049 263.764 C 139.904 261.224,160.929 250.561,171.304 237.769 C 171.944 236.981,172.576 236.219,172.710 236.077 C 174.741 233.926,179.138 226.332,180.741 222.211 C 181.809 219.465,182.449 217.604,182.995 215.660 C 183.686 213.201,184.542 209.039,184.389 208.885 C 184.260 208.756,172.248 209.252,161.412 209.833 C 130.464 211.492,110.692 213.727,105.271 216.181 C 103.700 216.892,103.723 217.053,104.818 212.992 C 108.345 199.915,114.892 186.427,122.601 176.356 C 137.204 157.280,155.984 146.849,180.348 144.282 C 183.823 143.916,199.883 143.911,202.866 144.275 C 227.527 147.286,246.730 157.565,261.120 175.458 C 263.686 178.648,266.916 183.500,268.941 187.206 C 280.317 208.023,285.371 235.472,281.448 255.135 C 280.831 258.231,278.918 264.135,278.302 264.849 C 278.275 264.881,276.927 264.271,275.308 263.492 C 270.848 261.348,267.520 259.775,267.443 259.775 C 267.404 259.775,266.580 259.407,265.611 258.957 C 261.160 256.891,254.886 254.360,254.694 254.552 C 254.634 254.612,254.817 254.914,255.102 255.222 C 255.511 255.665,260.470 261.391,262.769 264.074 C 263.010 264.355,265.036 266.704,267.271 269.294 C 269.505 271.883,271.532 274.232,271.774 274.514 C 272.016 274.795,274.043 277.144,276.278 279.734 C 278.513 282.323,280.540 284.672,280.782 284.954 C 281.025 285.235,283.926 288.598,287.229 292.426 C 290.533 296.254,293.434 299.616,293.677 299.898 C 293.920 300.179,295.947 302.528,298.182 305.118 C 300.416 307.707,302.443 310.056,302.685 310.338 C 302.927 310.619,304.954 312.968,307.189 315.558 C 309.424 318.147,311.448 320.496,311.688 320.778 C 311.928 321.059,312.792 322.055,313.607 322.991 C 314.423 323.926,315.057 324.718,315.017 324.750 C 314.977 324.782,313.700 324.650,312.180 324.455 C 298.822 322.749,281.716 322.028,268.373 322.608 C 254.607 323.207,240.903 318.103,231.372 308.828 C 230.105 307.595,229.069 306.638,229.069 306.701 C 229.069 306.792,231.286 310.700,234.006 315.404 C 234.218 315.770,234.575 316.392,234.800 316.786 C 235.026 317.180,235.394 317.825,235.619 318.219 C 235.844 318.613,236.213 319.258,236.438 319.652 C 236.663 320.046,237.032 320.691,237.257 321.085 C 237.482 321.479,237.837 322.101,238.047 322.467 C 238.704 323.617,248.129 340.082,248.622 340.942 C 249.019 341.635,249.180 341.751,249.674 341.697 C 249.994 341.662,251.638 341.457,253.327 341.241 C 280.394 337.789,319.058 341.397,355.373 350.765 C 357.343 351.273,359.029 351.689,359.119 351.689 C 359.349 351.689,359.090 351.292,358.103 350.132 C 357.241 349.120,353.927 345.199,352.498 343.501 C 350.958 341.671,347.729 337.849,346.877 336.847 C 346.398 336.285,341.968 331.034,337.031 325.179 C 332.095 319.324,327.900 314.350,327.710 314.125 C 325.072 311.000,323.227 308.818,322.517 307.984 C 321.881 307.236,308.267 291.096,303.350 285.261 C 299.688 280.915,298.152 279.101,298.062 279.017 C 297.517 278.512,294.985 275.303,294.985 275.118 C 294.985 274.986,295.299 273.852,295.684 272.598 C 303.347 247.599,301.105 212.962,290.275 189.048 C 289.414 187.147,286.605 181.483,285.910 180.246 C 285.531 179.570,284.963 178.557,284.648 177.994 C 282.576 174.284,277.117 166.467,274.782 163.866 C 274.578 163.639,273.951 162.906,273.388 162.238 C 260.451 146.878,241.456 135.105,221.045 129.798 C 202.781 125.050,174.435 125.856,159.970 131.535 C 157.622 132.456,157.615 132.345,159.909 130.659 C 180.527 115.506,214.190 114.273,243.808 127.586 C 245.625 128.403,252.121 131.633,253.224 132.269 C 253.843 132.625,254.534 133.022,254.759 133.150 C 270.688 142.205,284.840 156.689,294.664 173.990 C 295.920 176.202,299.498 183.268,300.320 185.159 C 300.418 185.384,300.738 186.121,301.031 186.796 C 308.755 204.593,312.790 228.077,312.793 255.261 C 312.794 259.703,312.870 263.249,312.963 263.142 C 313.511 262.513,315.585 256.670,316.685 252.658 C 323.381 228.235,320.757 198.139,309.702 172.569 C 308.000 168.631,303.541 160.186,301.380 156.807 C 300.364 155.218,297.623 151.119,297.134 150.458 C 296.909 150.153,296.544 149.638,296.324 149.312 C 291.583 142.312,280.662 130.812,273.406 125.179 C 272.971 124.841,272.512 124.470,272.387 124.355 C 272.069 124.060,267.904 120.922,266.826 120.164 C 266.150 119.689,260.772 116.113,260.082 115.680 C 257.011 113.754,253.737 111.938,249.564 109.850 C 229.763 99.937,207.269 95.280,184.749 96.432 M66.438 104.452 C 66.516 104.706,67.545 107.216,68.725 110.031 C 69.906 112.845,71.269 116.116,71.754 117.298 C 72.240 118.480,73.300 121.013,74.111 122.927 C 75.603 126.447,75.912 127.187,77.267 130.492 C 77.944 132.144,79.988 137.002,81.433 140.396 L 81.986 141.693 82.702 140.810 C 89.726 132.157,94.604 127.074,102.308 120.382 C 103.748 119.131,103.758 119.183,101.945 118.471 C 100.386 117.859,97.331 116.614,93.040 114.844 C 91.351 114.147,88.495 112.976,86.694 112.243 C 84.893 111.509,82.405 110.492,81.167 109.982 C 79.928 109.473,77.902 108.642,76.663 108.137 C 72.269 106.343,70.090 105.453,68.324 104.727 C 66.213 103.859,66.259 103.866,66.438 104.452 M306.448 118.834 C 295.020 122.100,285.527 124.831,285.352 124.903 C 285.114 125.000,285.842 125.858,288.218 128.279 C 289.970 130.064,292.407 132.677,293.633 134.084 C 294.859 135.491,296.105 136.919,296.403 137.257 C 296.988 137.921,301.745 144.083,302.521 145.183 C 303.909 147.148,305.350 149.234,305.551 149.569 C 305.757 149.911,305.839 149.848,306.370 148.950 C 306.694 148.400,307.385 147.240,307.905 146.372 C 308.424 145.503,308.885 144.709,308.928 144.607 C 309.024 144.382,311.671 139.874,312.917 137.814 C 313.412 136.995,313.818 136.272,313.818 136.208 C 313.818 136.144,313.991 135.847,314.202 135.548 C 314.413 135.250,314.761 134.683,314.975 134.289 C 315.404 133.497,317.961 129.121,319.068 127.281 C 319.457 126.636,319.887 125.899,320.024 125.644 C 320.372 124.996,323.088 120.369,324.176 118.572 C 324.671 117.752,325.077 117.040,325.077 116.989 C 325.077 116.938,325.399 116.392,325.793 115.776 C 326.187 115.160,326.510 114.597,326.510 114.525 C 326.510 114.452,326.701 114.124,326.935 113.795 C 327.169 113.467,327.330 113.130,327.293 113.047 C 327.256 112.964,317.876 115.569,306.448 118.834 M387.981 149.853 C 386.762 150.826,372.368 161.656,347.908 180.002 C 337.365 187.911,336.491 188.611,336.956 188.786 C 337.234 188.890,338.407 189.196,339.561 189.466 C 340.716 189.735,342.628 190.186,343.811 190.468 C 344.993 190.749,346.950 191.215,348.159 191.503 C 349.369 191.790,351.303 192.251,352.458 192.526 C 353.613 192.801,355.501 193.250,356.655 193.522 C 362.537 194.912,396.991 203.127,398.021 203.386 C 398.677 203.550,399.313 203.685,399.434 203.685 C 399.588 203.685,399.614 202.702,399.521 200.443 C 398.975 187.204,395.481 168.238,390.619 152.127 C 389.507 148.442,389.623 148.542,387.981 149.853 M311.157 156.456 C 311.157 156.525,312.078 158.424,313.204 160.676 C 314.330 162.928,315.251 164.812,315.251 164.862 C 315.251 164.913,315.609 165.723,316.047 166.663 C 317.817 170.467,321.271 180.023,322.527 184.596 C 322.721 185.299,322.936 185.866,323.005 185.856 C 323.186 185.828,351.368 157.043,351.450 156.802 C 351.494 156.674,348.191 156.602,342.238 156.602 C 337.134 156.602,328.053 156.540,322.057 156.466 C 316.062 156.391,311.157 156.387,311.157 156.456 M325.077 198.233 C 325.077 198.275,325.303 199.403,325.579 200.741 C 326.104 203.289,326.744 207.485,327.134 210.952 C 327.261 212.078,327.414 216.154,327.474 220.010 C 327.534 223.866,327.651 227.021,327.734 227.021 C 327.817 227.021,328.704 226.645,329.705 226.184 C 331.884 225.182,332.171 225.052,334.800 223.882 C 335.926 223.381,337.354 222.743,337.973 222.463 C 338.593 222.184,339.928 221.585,340.942 221.133 C 341.955 220.680,343.291 220.081,343.910 219.802 C 344.529 219.523,345.865 218.924,346.878 218.471 C 347.892 218.019,349.227 217.420,349.846 217.141 C 350.466 216.861,351.801 216.263,352.815 215.810 C 353.828 215.358,355.164 214.759,355.783 214.480 C 356.402 214.200,357.738 213.601,358.751 213.149 C 366.939 209.493,366.375 209.914,363.971 209.259 C 363.127 209.029,359.373 207.956,355.630 206.874 C 351.887 205.792,345.807 204.039,342.120 202.977 C 338.432 201.915,333.163 200.396,330.412 199.602 C 325.536 198.194,325.077 198.076,325.077 198.233 M384.237 216.387 C 375.624 219.410,367.288 222.339,365.711 222.896 C 362.419 224.060,340.312 231.783,338.520 232.395 C 337.087 232.884,336.973 232.745,340.555 234.893 C 342.119 235.831,346.991 238.767,351.382 241.418 C 355.773 244.068,362.728 248.262,366.837 250.738 C 380.806 259.152,390.273 264.863,391.485 265.605 C 392.999 266.533,392.854 266.736,394.048 262.016 C 396.789 251.174,398.631 239.005,399.594 225.384 C 399.818 222.223,400.121 210.835,399.981 210.871 C 399.935 210.882,392.851 213.365,384.237 216.387 M327.124 238.817 C 327.124 242.446,324.834 252.177,321.964 260.747 C 321.049 263.478,320.339 265.750,320.386 265.797 C 320.433 265.844,321.668 265.755,323.132 265.599 C 324.596 265.444,328.741 265.032,332.344 264.685 C 335.947 264.337,343.040 263.648,348.106 263.152 C 353.173 262.657,358.009 262.188,358.854 262.111 C 361.644 261.854,361.804 262.073,355.885 258.022 C 354.759 257.251,353.193 256.175,352.405 255.630 C 351.617 255.086,349.676 253.746,348.092 252.653 C 346.507 251.560,344.066 249.873,342.667 248.905 C 339.683 246.840,338.203 245.820,332.958 242.215 C 330.819 240.744,328.681 239.257,328.207 238.911 C 327.162 238.146,327.124 238.142,327.124 238.817 M357.993 273.472 C 341.026 274.222,327.096 274.883,327.037 274.941 C 326.949 275.030,330.621 279.170,339.098 288.536 C 339.913 289.437,343.236 293.122,346.482 296.725 C 349.728 300.328,352.678 303.598,353.036 303.992 C 353.589 304.601,362.338 314.310,364.287 316.479 C 368.925 321.640,368.946 321.660,369.242 321.261 C 369.719 320.619,372.860 315.439,373.694 313.920 C 374.126 313.132,374.789 311.934,375.167 311.259 C 376.459 308.947,379.777 302.254,381.204 299.079 C 381.988 297.334,382.762 295.613,382.924 295.255 C 385.268 290.085,391.402 273.455,391.402 272.271 C 391.402 271.983,392.948 271.928,357.993 273.472 M271.750 357.760 C 244.380 359.037,221.382 362.911,198.260 370.140 C 196.459 370.703,194.662 371.262,194.268 371.381 C 191.603 372.188,179.656 376.595,176.656 377.877 C 175.816 378.237,174.575 378.763,173.900 379.048 C 173.224 379.333,172.281 379.741,171.804 379.957 C 171.326 380.172,170.896 380.348,170.846 380.348 C 170.797 380.348,170.082 380.658,169.258 381.038 C 168.433 381.417,167.206 381.975,166.530 382.279 C 161.405 384.578,150.948 389.851,148.571 391.335 C 148.151 391.597,147.768 391.812,147.720 391.812 C 147.586 391.812,139.433 396.531,138.178 397.335 C 137.784 397.588,135.593 398.978,133.308 400.425 C 131.024 401.872,127.537 404.188,125.559 405.571 C 123.580 406.954,121.765 408.221,121.523 408.387 C 118.877 410.204,109.583 417.334,106.617 419.823 C 106.355 420.042,105.174 421.031,103.992 422.020 C 90.950 432.927,74.676 449.577,65.609 461.290 C 65.271 461.726,64.898 462.186,64.779 462.311 C 63.245 463.927,54.146 476.409,51.481 480.553 C 50.830 481.566,49.911 482.994,49.439 483.726 C 47.293 487.052,44.974 491.101,45.126 491.254 C 45.195 491.323,48.017 489.361,49.539 488.187 C 54.280 484.529,68.679 474.759,75.907 470.296 C 76.617 469.857,77.768 469.142,78.466 468.707 C 81.481 466.825,89.918 461.848,92.323 460.532 C 92.943 460.193,94.165 459.513,95.039 459.021 C 99.930 456.266,107.092 452.494,111.259 450.477 C 117.102 447.649,122.181 445.241,122.302 445.241 C 122.339 445.241,123.278 444.819,124.388 444.304 C 126.913 443.134,126.927 443.128,131.013 441.390 C 148.552 433.932,165.616 428.153,183.726 423.540 C 188.876 422.228,190.099 421.937,194.985 420.864 C 243.316 410.249,296.205 410.590,343.296 421.819 C 360.025 425.809,374.830 430.442,388.536 435.978 C 392.297 437.497,392.222 437.470,392.213 437.303 C 392.209 437.221,391.549 436.648,390.748 436.029 C 389.946 435.409,389.190 434.809,389.067 434.694 C 388.944 434.579,388.385 434.118,387.825 433.670 C 387.264 433.222,386.573 432.659,386.289 432.418 C 386.005 432.178,382.456 429.224,378.403 425.855 C 362.825 412.906,345.933 398.184,334.198 387.328 C 332.178 385.459,330.090 383.538,329.559 383.058 L 328.593 382.185 331.182 378.759 C 334.311 374.617,338.120 369.583,341.103 365.650 C 343.449 362.556,343.710 362.130,343.267 362.127 C 343.114 362.126,341.972 361.991,340.730 361.827 C 334.536 361.009,318.632 359.611,301.100 358.345 C 291.506 357.651,279.295 357.408,271.750 357.760 M292.323 373.185 C 300.060 373.480,305.144 373.875,315.089 374.955 L 316.258 375.082 315.703 375.852 C 315.103 376.685,309.700 383.655,308.698 384.889 C 307.872 385.907,307.797 385.769,310.367 387.940 C 311.622 389.000,312.750 389.962,312.875 390.078 C 313.067 390.256,318.378 394.839,319.959 396.190 C 320.241 396.431,321.857 397.824,323.551 399.286 C 325.245 400.748,327.041 402.298,327.543 402.730 C 328.085 403.197,328.289 403.469,328.045 403.400 C 326.971 403.099,323.104 402.236,321.085 401.846 C 279.318 393.785,227.867 396.180,182.565 408.295 C 180.614 408.817,178.373 409.417,177.584 409.627 C 171.558 411.239,156.916 415.943,150.051 418.473 C 146.840 419.657,140.030 422.289,138.280 423.023 C 137.380 423.400,135.204 424.312,133.445 425.049 C 131.686 425.786,129.706 426.634,129.044 426.933 C 128.382 427.233,127.354 427.697,126.760 427.966 C 126.165 428.235,125.643 428.454,125.599 428.454 C 125.524 428.454,123.988 429.170,118.426 431.794 C 117.189 432.378,113.919 433.983,111.159 435.361 C 106.300 437.787,106.174 437.837,107.165 436.940 C 108.377 435.844,115.930 429.853,117.400 428.823 C 117.963 428.429,119.759 427.148,121.392 425.977 C 125.051 423.353,134.064 417.405,137.525 415.329 C 149.017 408.438,159.722 402.786,170.317 398.013 C 176.024 395.442,176.244 395.349,181.883 393.085 C 187.865 390.684,192.865 388.852,198.839 386.872 C 229.423 376.735,261.669 372.014,292.323 373.185 "
        stroke="none"
        fill="#0c54a4"
        fill-rule="evenodd"
      ></path>
      <path
        id="path1"
        d=""
        stroke="none"
        fill="#1054a4"
        fill-rule="evenodd"
      ></path>
      <path
        id="path2"
        d=""
        stroke="none"
        fill="#1054a4"
        fill-rule="evenodd"
      ></path>
      <path
        id="path3"
        d=""
        stroke="none"
        fill="#1054a4"
        fill-rule="evenodd"
      ></path>
      <path
        id="path4"
        d=""
        stroke="none"
        fill="#1054a4"
        fill-rule="evenodd"
      ></path>
    </g>
  </svg>