<svg
    id="svg"
    version="1.1"
    xmlns="http://www.w3.org/2000/svg"
    width="50pt"
    height="50pt"
    viewBox="0 0 385 200"
    style="background-color:white;"
  >
    <g id="svgg">
      <path
        id="path0"
        d="M194.167 0.263 C 193.431 0.574,192.808 1.465,192.430 2.750 C 191.952 4.371,190.994 7.459,190.414 9.250 C 190.117 10.167,189.750 11.329,189.597 11.833 C 189.445 12.338,189.256 12.900,189.178 13.083 C 189.099 13.267,187.706 17.467,186.082 22.417 C 184.458 27.367,182.995 31.792,182.830 32.250 C 182.666 32.708,182.409 33.496,182.259 34.000 C 182.110 34.504,181.924 35.067,181.846 35.250 C 181.769 35.433,181.204 37.121,180.591 39.000 C 179.979 40.879,179.339 42.792,179.170 43.250 C 177.422 47.996,176.665 51.089,177.116 51.646 L 177.430 52.033 189.423 52.060 C 204.227 52.093,203.264 51.840,201.167 55.143 C 200.525 56.154,200.000 57.054,200.000 57.144 C 200.000 57.233,199.944 57.331,199.875 57.361 C 199.074 57.717,198.609 59.512,199.214 59.909 C 199.726 60.244,225.816 60.341,227.366 60.014 C 228.352 59.806,230.110 59.032,230.516 58.628 C 230.645 58.500,230.878 58.324,231.034 58.237 C 231.273 58.104,232.416 57.052,236.272 53.417 C 236.564 53.142,237.574 52.204,238.517 51.333 C 239.460 50.462,240.501 49.487,240.832 49.167 C 241.162 48.846,242.216 47.871,243.175 47.000 C 244.133 46.129,245.029 45.301,245.167 45.160 C 245.304 45.019,246.317 44.082,247.417 43.077 C 248.517 42.072,249.572 41.100,249.762 40.917 C 249.952 40.733,250.798 39.950,251.642 39.176 C 253.291 37.663,253.528 37.239,253.096 36.579 L 252.822 36.160 237.205 36.170 C 222.584 36.179,221.575 36.161,221.378 35.891 C 221.048 35.441,221.127 34.930,221.625 34.290 C 222.436 33.246,223.580 31.640,224.798 29.833 C 225.138 29.329,225.454 28.879,225.500 28.833 C 225.546 28.787,225.809 28.414,226.084 28.004 C 226.359 27.594,227.221 26.356,228.000 25.254 C 228.779 24.152,229.642 22.912,229.916 22.500 C 230.191 22.087,230.453 21.712,230.500 21.667 C 230.546 21.621,230.953 21.031,231.405 20.357 C 231.857 19.682,232.307 19.044,232.405 18.938 C 232.503 18.832,233.108 17.961,233.750 17.002 C 234.392 16.042,235.048 15.110,235.208 14.931 C 235.369 14.751,235.500 14.548,235.500 14.480 C 235.500 14.413,235.601 14.256,235.724 14.133 C 235.847 14.010,236.156 13.579,236.411 13.176 C 236.665 12.773,236.941 12.362,237.024 12.263 C 237.106 12.164,237.846 11.108,238.667 9.917 C 239.488 8.725,240.225 7.671,240.306 7.574 C 240.386 7.478,240.669 7.065,240.934 6.658 C 241.199 6.250,241.491 5.828,241.583 5.720 C 241.675 5.612,242.012 5.141,242.333 4.673 C 242.654 4.205,243.272 3.356,243.707 2.786 C 244.632 1.573,244.776 0.712,244.130 0.259 C 243.582 -0.124,195.076 -0.120,194.167 0.263 M167.538 153.451 C 167.073 153.541,166.000 154.616,166.000 154.992 C 166.000 155.143,165.937 155.338,165.861 155.425 C 165.784 155.512,165.551 155.996,165.343 156.500 C 165.135 157.004,164.866 157.642,164.745 157.917 C 164.624 158.192,164.289 158.979,164.000 159.667 C 163.711 160.354,163.293 161.299,163.071 161.767 C 162.848 162.234,162.667 162.701,162.667 162.803 C 162.667 162.906,162.532 163.236,162.367 163.537 C 162.202 163.837,161.819 164.683,161.515 165.417 C 161.211 166.150,160.821 167.069,160.648 167.458 C 160.475 167.848,160.192 168.485,160.019 168.875 C 159.846 169.265,159.501 170.071,159.252 170.667 C 159.003 171.262,158.657 172.065,158.483 172.449 C 158.309 172.834,158.167 173.188,158.167 173.237 C 158.167 173.285,157.952 173.796,157.689 174.371 C 157.427 174.946,156.971 175.979,156.677 176.667 C 156.382 177.354,156.042 178.142,155.920 178.417 C 155.798 178.692,155.495 179.404,155.247 180.000 C 154.998 180.596,154.646 181.421,154.464 181.833 C 154.282 182.246,154.070 182.733,153.992 182.917 C 153.799 183.375,153.178 184.811,152.912 185.417 C 152.791 185.692,152.456 186.479,152.167 187.167 C 151.878 187.854,151.460 188.812,151.238 189.296 C 151.015 189.780,150.833 190.236,150.833 190.310 C 150.833 190.383,150.646 190.812,150.417 191.263 C 150.189 191.714,150.001 192.164,150.001 192.263 C 150.000 192.362,149.813 192.812,149.584 193.263 C 149.355 193.714,149.168 194.138,149.167 194.204 C 149.167 194.271,148.942 194.816,148.667 195.417 C 148.392 196.017,148.167 196.539,148.167 196.576 C 148.167 196.613,147.936 197.155,147.653 197.780 C 147.371 198.405,147.027 199.167,146.889 199.472 C 146.565 200.189,146.679 200.278,147.452 199.911 C 148.195 199.559,148.415 199.331,150.500 196.748 C 151.371 195.670,152.159 194.704,152.251 194.602 C 152.344 194.500,153.080 193.592,153.887 192.583 C 154.694 191.575,155.570 190.487,155.833 190.167 C 156.097 189.846,156.972 188.758,157.778 187.750 C 158.585 186.742,159.284 185.879,159.333 185.833 C 159.402 185.768,162.067 182.479,163.113 181.167 C 163.475 180.713,164.523 179.423,164.806 179.083 C 164.958 178.899,165.344 178.412,165.662 177.999 C 165.981 177.587,166.286 177.213,166.341 177.167 C 166.396 177.121,167.220 176.108,168.171 174.917 C 169.123 173.725,169.942 172.713,169.993 172.667 C 170.044 172.621,170.307 172.283,170.578 171.917 C 170.849 171.550,171.149 171.169,171.244 171.069 C 171.426 170.879,172.007 170.166,173.462 168.348 C 175.035 166.384,175.246 166.124,175.500 165.846 C 175.637 165.696,175.974 165.275,176.247 164.911 C 176.521 164.548,176.872 164.100,177.029 163.917 C 177.522 163.338,177.903 162.869,178.333 162.311 C 178.563 162.014,178.998 161.466,179.302 161.093 C 179.605 160.721,179.944 160.304,180.053 160.167 C 181.279 158.630,183.766 155.565,183.841 155.500 C 184.532 154.896,184.621 154.273,184.091 153.742 L 183.682 153.333 175.799 153.356 C 171.464 153.369,167.746 153.411,167.538 153.451 "
        stroke="none"
        fill="#fcdc04"
        fill-rule="evenodd"
      ></path>
      <path
        id="path1"
        d="M200.250 66.341 C 161.808 66.417,150.733 66.485,150.083 66.646 C 149.625 66.759,148.769 66.967,148.180 67.108 C 145.102 67.842,142.911 69.491,141.719 71.970 L 141.107 73.243 141.158 103.996 C 141.186 120.911,141.257 142.662,141.316 152.333 L 141.423 169.917 141.811 170.541 C 142.261 171.265,142.338 171.247,142.834 170.292 C 143.037 169.902,143.251 169.546,143.310 169.500 C 143.369 169.454,143.851 168.779,144.381 168.000 C 144.912 167.221,145.647 166.171,146.015 165.667 C 147.273 163.945,149.401 160.652,149.785 159.833 C 150.327 158.681,150.818 157.502,150.972 156.989 C 151.067 156.674,151.332 155.892,151.562 155.250 C 152.071 153.827,153.847 148.802,154.566 146.750 C 154.855 145.925,155.137 145.175,155.193 145.083 C 155.249 144.992,155.349 144.654,155.416 144.333 C 155.484 144.012,155.589 143.675,155.652 143.583 C 155.714 143.492,155.899 143.004,156.063 142.500 C 156.227 141.996,156.426 141.433,156.506 141.250 C 156.585 141.067,156.884 140.242,157.171 139.417 C 157.458 138.592,158.141 136.642,158.689 135.083 C 159.237 133.525,159.832 131.800,160.013 131.250 C 160.193 130.700,160.404 130.135,160.482 129.995 C 160.560 129.854,160.680 129.479,160.748 129.161 C 160.816 128.843,160.923 128.508,160.985 128.417 C 161.047 128.325,161.232 127.837,161.396 127.333 C 161.561 126.829,161.760 126.267,161.839 126.083 C 161.918 125.900,162.095 125.412,162.233 125.000 C 162.370 124.587,162.864 123.162,163.331 121.833 C 163.799 120.504,164.330 118.967,164.513 118.417 C 164.695 117.867,164.913 117.267,164.995 117.083 C 165.078 116.900,165.194 116.563,165.253 116.333 C 165.355 115.935,166.057 113.949,166.342 113.250 C 166.417 113.067,166.677 112.317,166.920 111.583 C 167.162 110.850,167.426 110.100,167.506 109.917 C 167.586 109.733,167.847 108.983,168.086 108.250 C 168.325 107.517,168.586 106.767,168.666 106.583 C 168.747 106.400,169.122 105.313,169.500 104.167 C 169.878 103.021,170.250 101.933,170.326 101.750 C 170.402 101.567,170.591 101.042,170.746 100.583 C 170.901 100.125,171.070 99.638,171.122 99.500 C 171.174 99.362,171.561 98.265,171.983 97.061 C 172.838 94.621,173.159 94.086,173.979 93.739 C 174.834 93.376,229.360 93.380,229.661 93.743 C 229.916 94.051,229.352 95.641,228.090 98.167 C 227.371 99.606,225.789 102.215,225.379 102.638 C 225.261 102.760,225.093 102.993,225.006 103.156 C 224.386 104.314,220.727 107.949,218.417 109.702 C 218.325 109.771,218.025 110.003,217.750 110.216 C 213.502 113.507,205.706 116.603,198.000 118.058 C 192.908 119.019,191.123 119.181,184.138 119.315 C 178.292 119.428,178.218 119.443,177.920 120.630 C 177.860 120.867,177.667 121.361,177.489 121.728 C 177.312 122.096,177.167 122.464,177.167 122.548 C 177.167 122.631,177.061 122.936,176.931 123.225 C 176.802 123.514,176.547 124.162,176.365 124.667 C 175.873 126.029,174.188 130.318,173.843 131.083 C 173.678 131.450,173.491 131.938,173.428 132.167 C 173.318 132.565,173.198 132.876,172.837 133.708 C 172.748 133.915,172.183 135.358,171.582 136.917 C 170.980 138.475,170.385 139.975,170.259 140.250 C 169.641 141.598,168.500 144.800,168.500 145.188 C 168.500 146.112,168.112 146.082,180.401 146.095 C 188.313 146.104,192.272 146.170,193.473 146.314 C 197.504 146.796,202.633 148.563,205.792 150.557 C 206.178 150.801,206.564 151.000,206.649 151.000 C 206.735 151.000,206.831 151.064,206.861 151.141 C 206.892 151.219,207.442 151.609,208.083 152.009 C 208.725 152.408,209.287 152.783,209.333 152.842 C 209.379 152.901,209.942 153.276,210.583 153.676 C 211.225 154.075,211.787 154.449,211.833 154.506 C 211.879 154.564,212.554 155.014,213.333 155.508 C 214.112 156.001,215.105 156.651,215.540 156.952 C 215.974 157.254,216.399 157.500,216.484 157.500 C 216.569 157.500,216.664 157.559,216.694 157.631 C 216.725 157.702,217.463 158.206,218.333 158.750 C 219.204 159.294,219.942 159.798,219.972 159.869 C 220.003 159.941,220.100 160.000,220.188 160.000 C 220.275 160.000,220.438 160.080,220.549 160.178 C 220.659 160.276,222.100 161.208,223.750 162.249 C 225.400 163.289,226.832 164.214,226.933 164.304 C 227.034 164.393,227.709 164.839,228.433 165.295 C 230.113 166.352,231.536 167.279,231.750 167.455 C 231.842 167.530,232.442 167.920,233.083 168.321 C 233.725 168.722,234.287 169.099,234.333 169.158 C 234.379 169.217,235.129 169.708,236.000 170.250 C 236.871 170.792,237.621 171.278,237.667 171.332 C 237.713 171.385,238.162 171.695,238.667 172.021 C 239.171 172.347,240.558 173.250,241.750 174.027 C 243.893 175.426,245.471 176.431,247.635 177.776 C 248.248 178.157,248.830 178.541,248.928 178.630 C 249.074 178.761,255.772 183.025,256.917 183.716 C 257.100 183.826,257.287 183.960,257.333 184.014 C 257.379 184.067,257.979 184.441,258.667 184.844 C 259.354 185.247,259.942 185.635,259.972 185.705 C 260.003 185.776,260.134 185.833,260.264 185.833 C 260.394 185.833,260.500 185.891,260.500 185.960 C 260.500 186.030,260.647 186.162,260.826 186.252 C 261.372 186.528,271.090 192.682,271.417 192.959 C 271.508 193.037,271.696 193.155,271.833 193.221 C 271.971 193.288,272.627 193.696,273.290 194.129 C 277.074 196.597,282.879 200.177,282.962 200.093 C 283.302 199.753,280.938 195.416,277.621 190.297 C 276.795 189.022,272.504 182.107,271.749 180.833 C 271.395 180.237,270.281 178.438,269.272 176.833 C 268.264 175.229,267.356 173.767,267.255 173.583 C 267.154 173.400,266.793 172.822,266.452 172.300 C 266.112 171.777,265.833 171.277,265.833 171.189 C 265.833 171.100,265.773 171.003,265.699 170.972 C 265.625 170.942,265.161 170.242,264.669 169.417 C 263.889 168.110,260.107 161.999,259.356 160.833 C 258.802 159.974,258.669 159.742,258.567 159.458 C 258.509 159.298,258.403 159.167,258.332 159.167 C 258.261 159.167,258.156 158.979,258.098 158.750 C 258.041 158.521,257.920 158.333,257.830 158.333 C 257.740 158.333,257.667 158.221,257.667 158.083 C 257.667 157.946,257.600 157.833,257.518 157.833 C 257.436 157.833,257.322 157.646,257.265 157.417 C 257.207 157.188,257.087 157.000,256.997 157.000 C 256.907 157.000,256.833 156.922,256.833 156.827 C 256.833 156.731,256.692 156.450,256.520 156.202 C 256.089 155.580,253.405 151.241,251.704 148.417 C 250.931 147.133,250.231 146.058,250.149 146.028 C 250.067 145.997,250.000 145.895,250.000 145.800 C 250.000 145.705,248.586 143.368,246.858 140.606 C 241.859 132.618,242.066 133.333,244.757 133.333 C 249.222 133.333,255.660 131.886,256.494 130.694 C 256.543 130.624,256.847 130.406,257.170 130.210 C 258.417 129.453,261.000 126.198,261.000 125.383 C 261.000 125.262,261.065 125.032,261.144 124.873 C 261.749 123.661,261.741 123.920,261.762 104.417 C 261.773 93.967,261.835 84.254,261.899 82.833 C 262.109 78.228,261.147 72.581,259.997 71.667 C 259.940 71.621,259.845 71.455,259.787 71.298 C 258.809 68.645,252.678 65.533,249.750 66.205 C 249.658 66.226,227.383 66.287,200.250 66.341 M9.750 66.781 C 5.076 67.213,1.289 70.498,0.272 75.003 C -0.085 76.584,-0.141 131.728,0.214 132.169 C 0.764 132.852,-0.465 132.833,44.668 132.833 L 87.987 132.833 88.327 133.198 C 88.860 133.770,88.855 144.049,88.321 144.728 L 87.976 145.167 44.730 145.167 C 4.829 145.167,1.442 145.188,0.950 145.442 C -0.040 145.954,0.011 145.235,0.005 158.679 L -0.000 171.109 0.375 171.455 C 1.052 172.080,1.441 172.084,57.250 171.995 L 112.583 171.907 113.833 171.423 C 116.034 170.571,119.054 168.156,119.432 166.947 C 119.494 166.747,119.593 166.546,119.652 166.500 C 119.889 166.316,120.378 164.950,120.823 163.231 C 121.205 161.750,121.055 107.508,120.666 106.871 C 120.085 105.918,122.522 105.969,76.296 105.942 L 33.176 105.917 32.796 105.537 C 32.336 105.077,32.098 95.167,32.529 94.363 C 33.021 93.443,30.111 93.500,76.758 93.500 L 119.867 93.500 120.438 92.929 L 121.008 92.358 120.963 80.304 C 120.913 67.186,120.952 67.705,119.950 67.081 C 119.460 66.777,12.939 66.487,9.750 66.781 M280.250 66.808 C 279.713 66.983,279.395 67.225,279.191 67.614 C 278.789 68.380,278.932 170.770,279.336 171.337 C 279.521 171.597,279.901 171.858,280.184 171.920 C 280.905 172.079,398.324 172.083,398.833 171.925 C 399.063 171.853,399.419 171.641,399.625 171.452 L 400.000 171.109 400.000 158.627 C 400.000 150.804,399.939 146.031,399.837 145.840 C 399.471 145.156,400.168 145.167,355.251 145.167 C 313.450 145.167,311.875 145.156,311.609 144.862 C 311.143 144.347,311.196 133.638,311.667 133.167 C 311.998 132.835,312.222 132.833,355.322 132.833 C 399.574 132.833,399.290 132.837,399.773 132.202 C 400.069 131.812,400.103 107.409,399.809 106.763 C 399.407 105.881,401.597 105.920,355.333 105.980 L 312.250 106.037 311.792 105.673 L 311.333 105.309 311.333 99.680 C 311.333 94.439,311.354 94.033,311.638 93.776 C 311.920 93.521,315.198 93.500,355.414 93.500 L 398.885 93.500 399.443 93.075 L 400.000 92.650 400.000 80.236 C 400.000 66.406,400.065 67.173,398.858 66.837 C 398.180 66.649,280.828 66.620,280.250 66.808 "
        stroke="none"
        fill="#1414a4"
        fill-rule="evenodd"
      ></path>
      <path
        id="path2"
        d=""
        stroke="none"
        fill="#c4e054"
        fill-rule="evenodd"
      ></path>
      <path
        id="path3"
        d=""
        stroke="none"
        fill="#4c7c54"
        fill-rule="evenodd"
      ></path>
      <path
        id="path4"
        d=""
        stroke="none"
        fill="#4c14a8"
        fill-rule="evenodd"
      ></path>
    </g>
  </svg>