<svg
xmlns="http://www.w3.org/2000/svg"
xlink="http://www.w3.org/1999/xlink"
width="50pt"
height="50pt"
viewBox="-2 -2 28 28"
version="1.1"
>
<g id="surface1">
    <path fill="red" d="M 6.078125 9.339844 C 6.070312 14.367188 6.070312 14.730469 6.039062 14.878906 C 5.820312 15.882812 5.015625 16.71875 3.921875 17.070312 C 3.667969 17.148438 3.398438 17.199219 3.078125 17.226562 L 2.804688 17.25 L 2.804688 18.621094 L 3.085938 18.609375 C 3.757812 18.578125 4.359375 18.429688 5 18.128906 C 5.515625 17.886719 5.925781 17.601562 6.324219 17.210938 C 6.96875 16.578125 7.355469 15.84375 7.507812 14.957031 C 7.539062 14.769531 7.542969 14.390625 7.546875 9.359375 L 7.558594 3.960938 L 6.082031 3.960938 Z M 6.078125 9.339844 " />
    <path fill="red" d="M 8.933594 10.292969 L 8.9375 12.984375 L 8.992188 13.195312 C 9.097656 13.605469 9.246094 13.933594 9.484375 14.273438 C 9.96875 14.972656 10.734375 15.46875 11.585938 15.640625 C 11.84375 15.695312 12.351562 15.710938 12.636719 15.679688 C 13.453125 15.589844 14.257812 15.175781 14.753906 14.59375 L 14.828125 14.507812 L 15.082031 14.746094 C 15.222656 14.878906 15.421875 15.042969 15.527344 15.113281 C 15.914062 15.375 16.398438 15.574219 16.847656 15.652344 C 17.152344 15.707031 17.808594 15.703125 18.085938 15.644531 C 19.269531 15.398438 20.222656 14.589844 20.597656 13.515625 C 20.691406 13.238281 20.730469 13.0625 20.753906 12.78125 C 20.765625 12.652344 20.773438 11.589844 20.773438 10.082031 L 20.773438 7.601562 L 19.34375 7.601562 L 19.34375 10.167969 C 19.34375 12.59375 19.34375 12.746094 19.304688 12.90625 C 19.144531 13.664062 18.484375 14.234375 17.671875 14.328125 C 17.039062 14.402344 16.382812 14.144531 15.96875 13.660156 C 15.835938 13.507812 15.660156 13.167969 15.601562 12.957031 L 15.558594 12.792969 L 15.550781 10.195312 L 15.542969 7.601562 L 14.136719 7.601562 L 14.128906 10.207031 L 14.125 12.8125 L 14.078125 12.976562 C 14.023438 13.183594 13.867188 13.484375 13.726562 13.652344 C 13.261719 14.21875 12.492188 14.460938 11.738281 14.28125 C 11.558594 14.234375 11.203125 14.058594 11.039062 13.925781 C 10.78125 13.722656 10.550781 13.398438 10.449219 13.097656 C 10.359375 12.835938 10.359375 12.867188 10.359375 10.164062 L 10.359375 7.601562 L 8.925781 7.601562 Z M 8.933594 10.292969 " />
</g>
</svg>